<?xml version="1.0" encoding="utf-8"?>
<svg version="1.1" xmlns:xlink="http://www.w3.org/1999/xlink" width="50px" height="50px" xmlns="http://www.w3.org/2000/svg">
  <g transform="matrix(1 0 0 1 -223 -413 )">
    <path d="M 21.0100446428571 45.3404017857143  C 22.2191220238095 45.5636160714286  23.3444940476191 45.6845238095238  24.3861607142857 45.703125  L 24.3861607142857 47.5446428571429  C 20.5171130952381 47.4330357142857  16.9363839285714 46.4146205357143  13.6439732142857 44.4893973214286  C 10.3515625 42.5641741071429  7.71949404761905 40.0018601190476  5.74776785714286 36.8024553571429  L 7.36607142857143 35.8537946428571  C 7.90550595238095 36.7652529761905  8.58444940476191 37.6860119047619  9.40290178571429 38.6160714285714  L 11.2165178571429 37.0256696428571  C 13.969494047619 40.1506696428571  17.3921130952381 42.1223958333333  21.484375 42.9408482142857  L 21.0100446428571 45.3404017857143  Z M 6.69642857142857 25  C 6.69642857142857 27.0275297619048  7.03125 28.999255952381  7.70089285714286 30.9151785714286  L 5.38504464285714 31.6964285714286  C 5.79427083333333 32.8125  6.25 33.8541666666667  6.75223214285714 34.8214285714286  L 5.16183035714286 35.7421875  C 3.33891369047619 32.3939732142857  2.42745535714286 28.813244047619  2.42745535714286 25  C 2.42745535714286 21.1867559523809  3.33891369047619 17.6060267857143  5.16183035714286 14.2578125  L 6.75223214285714 15.1785714285714  C 6.19419642857143 16.2202380952381  5.73846726190476 17.2619047619048  5.38504464285714 18.3035714285714  L 7.67299107142857 19.0848214285714  C 7.02194940476191 20.9449404761905  6.69642857142857 22.9166666666667  6.69642857142857 25  Z M 40.5970982142857 38.6160714285714  C 41.4155505952381 37.6860119047619  42.0944940476191 36.7652529761905  42.6339285714286 35.8537946428571  L 44.2522321428571 36.8024553571429  C 42.280505952381 40.0018601190476  39.6484375 42.5641741071429  36.3560267857143 44.4893973214286  C 33.0636160714286 46.4146205357143  29.4828869047619 47.4330357142857  25.6138392857143 47.5446428571429  L 25.6138392857143 45.703125  C 26.655505952381 45.6845238095238  27.7808779761905 45.5636160714286  28.9899553571429 45.3404017857143  L 28.515625 42.9408482142857  C 32.6078869047619 42.1223958333333  36.030505952381 40.1506696428571  38.7834821428571 37.0256696428571  L 40.5970982142857 38.6160714285714  Z M 35.6584821428571 15.6808035714286  C 36.8861607142857 17.094494047619  37.8069196428571 18.6662946428571  38.4207589285714 20.3962053571429  L 31.9196428571429 22.6283482142857  C 32.1800595238095 23.4095982142857  32.3102678571429 24.2001488095238  32.3102678571429 25  C 32.3102678571429 25.7998511904762  32.1800595238095 26.5904017857143  31.9196428571429 27.3716517857143  L 38.3928571428571 29.6037946428571  C 37.8162202380952 31.3151041666667  36.9047619047619 32.8869047619048  35.6584821428571 34.3191964285714  L 30.4966517857143 29.7991071428571  C 29.4363839285714 31.0453869047619  28.0691964285714 31.8359375  26.3950892857143 32.1707589285714  L 27.734375 38.8950892857143  C 26.7671130952381 39.0811011904762  25.8556547619048 39.1741071428571  25 39.1741071428571  C 24.1443452380952 39.1741071428571  23.2328869047619 39.0811011904762  22.265625 38.8950892857143  L 23.6049107142857 32.1707589285714  C 21.9308035714286 31.8359375  20.5636160714286 31.0453869047619  19.5033482142857 29.7991071428571  L 14.3415178571429 34.3191964285714  C 13.0952380952381 32.8869047619048  12.1837797619048 31.3151041666667  11.6071428571429 29.6037946428571  L 18.0803571428571 27.3716517857143  C 17.8199404761905 26.5904017857143  17.6897321428571 25.7998511904762  17.6897321428571 25  C 17.6897321428571 24.2001488095238  17.8199404761905 23.4095982142857  18.0803571428571 22.6283482142857  L 11.5792410714286 20.3962053571429  C 12.1930803571429 18.6662946428571  13.1138392857143 17.094494047619  14.3415178571429 15.6808035714286  L 19.5033482142857 20.2008928571429  C 20.600818452381 18.9360119047619  21.968005952381 18.1361607142857  23.6049107142857 17.8013392857143  L 22.265625 11.1049107142857  C 23.0840773809524 10.9188988095238  23.9955357142857 10.8258928571429  25 10.8258928571429  C 26.0044642857143 10.8258928571429  26.9159226190476 10.9188988095238  27.734375 11.1049107142857  L 26.3950892857143 17.8013392857143  C 28.0319940476191 18.1361607142857  29.3991815476191 18.9360119047619  30.4966517857143 20.2008928571429  L 35.6584821428571 15.6808035714286  Z M 13.6439732142857 5.51060267857143  C 16.9177827380952 3.58537946428572  20.4985119047619 2.56696428571428  24.3861607142857 2.45535714285715  L 24.3861607142857 4.296875  C 23.1770833333333 4.33407738095238  22.0517113095238 4.45498511904762  21.0100446428571 4.65959821428572  L 21.484375 7.05915178571428  C 17.3921130952381 7.84040178571428  13.969494047619 9.80282738095238  11.2165178571429 12.9464285714286  L 9.40290178571429 11.3839285714286  C 8.69605654761905 12.1651785714286  8.0171130952381 13.0766369047619  7.36607142857143 14.1183035714286  L 5.77566964285714 13.1975446428571  C 7.74739583333333 9.99813988095238  10.3701636904762 7.43582589285715  13.6439732142857 5.51060267857143  Z M 44.8381696428571 14.2578125  C 46.6610863095238 17.6060267857143  47.5725446428571 21.1867559523809  47.5725446428571 25  C 47.5725446428571 28.813244047619  46.6610863095238 32.3939732142857  44.8381696428571 35.7421875  L 43.2477678571429 34.8214285714286  C 43.75 33.8541666666667  44.2057291666667 32.8125  44.6149553571429 31.6964285714286  L 42.2991071428571 30.9151785714286  C 42.96875 28.999255952381  43.3035714285714 27.0275297619048  43.3035714285714 25  C 43.3035714285714 22.9166666666667  42.9780505952381 20.9449404761905  42.3270089285714 19.0848214285714  L 44.6149553571429 18.3035714285714  C 44.2615327380952 17.2619047619048  43.8058035714286 16.2202380952381  43.2477678571429 15.1785714285714  L 44.8381696428571 14.2578125  Z M 36.3560267857143 5.51060267857143  C 39.6298363095238 7.43582589285715  42.2526041666667 9.99813988095238  44.2243303571429 13.1975446428571  L 42.6339285714286 14.1183035714286  C 41.9828869047619 13.0766369047619  41.303943452381 12.1651785714286  40.5970982142857 11.3839285714286  L 38.7834821428571 12.9464285714286  C 36.030505952381 9.80282738095238  32.6078869047619 7.84040178571428  28.515625 7.05915178571428  L 28.9899553571429 4.65959821428572  C 27.9482886904762 4.45498511904762  26.8229166666667 4.33407738095238  25.6138392857143 4.296875  L 25.6138392857143 2.45535714285715  C 29.5014880952381 2.56696428571428  33.0822172619048 3.58537946428572  36.3560267857143 5.51060267857143  Z M 46.8889508928571 34.2354910714286  C 48.14453125 31.2965029761905  48.7723214285714 28.218005952381  48.7723214285714 25  C 48.7723214285714 21.781994047619  48.14453125 18.7034970238095  46.8889508928571 15.7645089285714  C 45.6333705357143 12.8255208333333  43.9453125 10.2957589285714  41.8247767857143 8.17522321428572  C 39.7042410714286 6.0546875  37.1744791666667 4.36662946428572  34.2354910714286 3.11104910714285  C 31.2965029761905 1.85546875  28.218005952381 1.22767857142857  25 1.22767857142857  C 21.7819940476191 1.22767857142857  18.7034970238095 1.85546875  15.7645089285714 3.11104910714285  C 12.8255208333333 4.36662946428572  10.2957589285714 6.0546875  8.17522321428571 8.17522321428572  C 6.0546875 10.2957589285714  4.36662946428571 12.8255208333333  3.11104910714286 15.7645089285714  C 1.85546875 18.7034970238095  1.22767857142857 21.781994047619  1.22767857142857 25  C 1.22767857142857 28.218005952381  1.85546875 31.2965029761905  3.11104910714286 34.2354910714286  C 4.36662946428571 37.1744791666667  6.0546875 39.7042410714286  8.17522321428571 41.8247767857143  C 10.2957589285714 43.9453125  12.8255208333333 45.6333705357143  15.7645089285714 46.8889508928571  C 18.7034970238095 48.14453125  21.7819940476191 48.7723214285714  25 48.7723214285714  C 28.218005952381 48.7723214285714  31.2965029761905 48.14453125  34.2354910714286 46.8889508928571  C 37.1744791666667 45.6333705357143  39.7042410714286 43.9453125  41.8247767857143 41.8247767857143  C 43.9453125 39.7042410714286  45.6333705357143 37.1744791666667  46.8889508928571 34.2354910714286  Z M 48.0189732142857 15.2901785714286  C 49.3396577380952 18.3779761904762  50 21.6145833333333  50 25  C 50 28.3854166666667  49.3396577380952 31.6220238095238  48.0189732142857 34.7098214285714  C 46.6982886904762 37.797619047619  44.921875 40.4575892857143  42.6897321428571 42.6897321428571  C 40.4575892857143 44.921875  37.7976190476191 46.6982886904762  34.7098214285714 48.0189732142857  C 31.6220238095238 49.3396577380952  28.3854166666667 50  25 50  C 21.6145833333333 50  18.3779761904762 49.3396577380952  15.2901785714286 48.0189732142857  C 12.202380952381 46.6982886904762  9.54241071428571 44.921875  7.31026785714286 42.6897321428571  C 5.078125 40.4575892857143  3.30171130952381 37.797619047619  1.98102678571429 34.7098214285714  C 0.660342261904762 31.6220238095238  0 28.3854166666667  0 25  C 0 21.6145833333333  0.660342261904762 18.3779761904762  1.98102678571429 15.2901785714286  C 3.30171130952381 12.2023809523809  5.078125 9.54241071428572  7.31026785714286 7.31026785714285  C 9.54241071428571 5.078125  12.202380952381 3.30171130952381  15.2901785714286 1.98102678571428  C 18.3779761904762 0.660342261904762  21.6145833333333 0  25 0  C 28.3854166666667 0  31.6220238095238 0.660342261904762  34.7098214285714 1.98102678571428  C 37.7976190476191 3.30171130952381  40.4575892857143 5.078125  42.6897321428571 7.31026785714285  C 44.921875 9.54241071428572  46.6982886904762 12.2023809523809  48.0189732142857 15.2901785714286  Z " fill-rule="nonzero" fill="#199ed8" stroke="none" transform="matrix(1 0 0 1 223 413 )" />
  </g>
</svg>