<?xml version="1.0" encoding="utf-8"?>
<svg version="1.1" xmlns:xlink="http://www.w3.org/1999/xlink" width="50px" height="50px" xmlns="http://www.w3.org/2000/svg">
  <g transform="matrix(1 0 0 1 -51 -549 )">
    <path d="M 10.4814137720902 42.2702373706634  C 10.8673573024579 41.8847636437411  11.0603290676417 41.4282815987016  11.0603290676417 40.9007912355447  C 11.0603290676417 40.3733008723879  10.8673573024579 39.9168188273483  10.4814137720902 39.5313451004261  C 10.0954702417225 39.1458713735038  9.63843185049767 38.9531345100426  9.1102985984156 38.9531345100426  C 8.58216534633354 38.9531345100426  8.12512695510867 39.1458713735038  7.73918342474101 39.5313451004261  C 7.35323989437335 39.9168188273483  7.16026812918952 40.3733008723879  7.16026812918952 40.9007912355447  C 7.16026812918952 41.4282815987016  7.35323989437335 41.8847636437411  7.73918342474101 42.2702373706634  C 8.12512695510867 42.6557110975857  8.58216534633354 42.8484479610469  9.1102985984156 42.8484479610469  C 9.63843185049767 42.8484479610469  10.0954702417225 42.6557110975857  10.4814137720902 42.2702373706634  Z M 25.3960999390615 24.6348143639683  C 26.9297176518383 26.1665652262122  28.6918545602275 27.3280584297018  30.6825106642291 28.119293974437  L 9.9024984765387 48.8740109555691  C 9.15092423319114 49.624670318523  8.23684745074142 50  7.16026812918952 50  C 6.10400162502539 50  5.17976843388178 49.624670318523  4.38756855575868 48.8740109555691  L 1.15783059110299 45.5873402312842  C 0.385943530367662 44.8569689592209  0 43.9440048691418  0 42.8484479610469  C 0 41.7731791438426  0.385943530367662 40.8500710083181  1.15783059110299 40.0791235544735  L 21.9073735527118 19.3548387096774  C 22.6995734308349 21.3430716169608  23.8624822262848 23.1030635017245  25.3960999390615 24.6348143639683  Z M 49.7410115783059 14.1205112598904  C 49.913670526102 14.3233921687969  50 14.57699330493  50 14.8813146682897  C 50 15.672550213025  49.7664026000406 16.7478190302293  49.2992078001219 18.1071211199026  C 48.3445053828966 20.8257252992493  46.6737761527524 23.0320551836072  44.2870201096892 24.7261107729763  C 41.900264066626 26.4201663623453  39.2748324192565 27.2671941570298  36.4107251675807 27.2671941570298  C 32.652853950843 27.2671941570298  29.4383505992281 25.9332521809698  26.7672151127361 23.2653682288497  C 24.0960796262442 20.5974842767296  22.7605118829982 17.3868938932846  22.7605118829982 13.6335970785149  C 22.7605118829982 9.88030026374518  24.0960796262442 6.66970988030026  26.7672151127361 4.00182592818016  C 29.4383505992281 1.33394197606005  32.652853950843 0  36.4107251675807 0  C 37.5888685760715 0  38.8228722323786 0.167376749847842  40.1127361365021 0.50213024954352  C 41.4026000406256 0.836883749239198  42.4944139752184 1.30858186244674  43.3881779402803 1.91722458916616  C 43.7131830184847 2.14039358896327  43.8756855575868 2.42442686143233  43.8756855575868 2.76932440657334  C 43.8756855575868 3.11422195171434  43.7131830184847 3.3982552241834  43.3881779402803 3.62142422398052  L 34.4606946983547 8.76445526475958  L 34.4606946983547 15.581253804017  L 40.3412553321146 18.8374923919659  C 40.4428194190534 18.776628119294  41.2451757058704 18.2846419151958  42.7483241925655 17.3615337796713  C 44.2514726792606 16.4384256441469  45.6276660572821 15.6167579630757  46.8769043266301 14.8965307364577  C 48.1261425959781 14.1763035098397  48.842169408897 13.8161898965307  49.024984765387 13.8161898965307  C 49.3296770262035 13.8161898965307  49.5683526305099 13.917630350984  49.7410115783059 14.1205112598904  Z " fill-rule="nonzero" fill="#199ed8" stroke="none" transform="matrix(1 0 0 1 51 549 )" />
  </g>
</svg>