<?xml version="1.0" encoding="utf-8"?>
<svg version="1.1" xmlns:xlink="http://www.w3.org/1999/xlink" width="59px" height="42px" xmlns="http://www.w3.org/2000/svg">
  <g transform="matrix(1 0 0 1 -94 -198 )">
    <path d="M 59 1.16666666666667  C 59 0.525  58.2625 0  57.3611111111111 0  C 57.1808333333333 0  57.0169444444444 0.0116666666666664  56.8530555555556 0.0583333333333331  L 39.3333333333333 4.9  L 19.6666666666667 0  L 1.19638888888889 4.43333333333333  C 0.508055555555556 4.59666666666667  0 5.01666666666667  0 5.55333333333334  L 0 40.8333333333333  C 0 41.475  0.7375 42  1.63888888888889 42  C 1.81916666666667 42  1.98305555555556 41.9883333333333  2.14694444444444 41.9416666666667  L 19.6666666666667 37.1  L 39.3333333333333 42  L 57.82 37.5783333333333  C 58.5083333333333 37.4033333333333  59 36.9833333333333  59 36.4466666666667  L 59 1.16666666666667  Z M 39 9.57833333333333  L 39 37.3333333333333  L 20 32.4216666666667  L 20 4.66666666666667  L 39 9.57833333333333  Z " fill-rule="nonzero" fill="#199ed8" stroke="none" transform="matrix(1 0 0 1 94 198 )" />
  </g>
</svg>