<?xml version="1.0" encoding="utf-8"?>
<svg version="1.1" xmlns:xlink="http://www.w3.org/1999/xlink" width="163px" height="329px" xmlns="http://www.w3.org/2000/svg">
  <g transform="matrix(1 0 0 1 -121 -255 )">
    <path d="M 202 255.5  C 219.864 255.5  233.9 269.536  233.9 287.4  C 233.9 305.264  219.864 319.3  202 319.3  C 184.136 319.3  170.1 305.264  170.1 287.4  C 170.1 269.536  184.136 255.5  202 255.5  Z " fill-rule="nonzero" fill="#ffffff" stroke="none" />
    <path d="M 202 255.5  C 219.864 255.5  233.9 269.536  233.9 287.4  C 233.9 305.264  219.864 319.3  202 319.3  C 184.136 319.3  170.1 305.264  170.1 287.4  C 170.1 269.536  184.136 255.5  202 255.5  Z " stroke-width="1" stroke="#797979" fill="none" />
    <path d="M 121 352.2  L 283 352.2  M 202 319.8  L 202 502  M 137.2 583  L 202 502  M 202 502  L 266.8 583  " stroke-width="1" stroke="#797979" fill="none" />
  </g>
</svg>